<?xml version="1.0" standalone="no"?><!DOCTYPE svg PUBLIC "-//W3C//DTD SVG 1.1//EN" "http://www.w3.org/Graphics/SVG/1.1/DTD/svg11.dtd"><svg class="icon" width="64px" height="64.00px" viewBox="0 0 1024 1024" version="1.1" xmlns="http://www.w3.org/2000/svg"><path fill="#000000" d="M524.525 835.722c-13.08-1.846-25.011 7.266-26.84 20.354L481.854 969.14c-1.829 13.088 7.215 25.203 20.195 27.065 11.645 0 25.153-8.406 26.831-20.354l15.832-113.063c1.829-13.089-7.216-25.204-20.187-27.066z m357.691-520.768c1.191-10 2.266-21.377 2.266-29.834 0-141.724-115.396-257.036-257.221-257.036-89.983 0-172.977 47.286-219.356 122.746-28.627-19.348-62.38-29.751-97.693-29.751-96.468 0-174.957 78.43-174.957 174.831 0 10.403 0.915 20.707 2.718 30.825C55.6 356.938 0 435.149 0 524.855c0 114.54 90.83 200.94 211.277 200.94h602.292c116.495 0 211.277-94.74 211.277-211.143 0-90.191-58.772-170.769-142.63-199.698z m-68.648 360.921H211.276c-91.988 0-161.332-64.922-161.332-151.02 0-75.04 50.927-139.542 123.854-156.859a24.964 24.964 0 0 0 16.066-12.183c3.415-6.142 4.061-13.407 1.837-20.068-4.329-12.786-6.502-26.193-6.502-39.836 0-68.865 56.087-124.91 125.011-124.91 33.132 0 64.352 12.803 87.894 36.077 5.814 5.739 14.062 8.272 22.091 6.796s14.825-6.779 18.207-14.229c33.551-73.899 107.686-121.655 188.859-121.655 114.288 0 207.274 92.911 207.274 207.133 0 12.417-3.675 37.788-4.647 43.896a25.863 25.863 0 0 0-0.327 4.026c0 12.149 8.733 22.385 20.454 24.533 72.423 16.679 124.886 82.591 124.886 157.077-0.001 88.901-72.381 161.222-161.333 161.222zM223.609 935.613c0 32.922 26.714 59.636 59.67 59.636 32.947 0 59.678-26.714 59.678-59.636 0 0-2.307-60.375-59.678-117.729-57.371 57.354-59.67 117.729-59.67 117.729z m460.628 0.033c0 32.922 26.714 59.636 59.652 59.636 32.965 0 59.695-26.714 59.695-59.636 0 0-2.308-60.408-59.695-117.729-57.353 57.321-59.652 117.729-59.652 117.729z"  /></svg>