<?xml version="1.0" standalone="no"?><!DOCTYPE svg PUBLIC "-//W3C//DTD SVG 1.1//EN" "http://www.w3.org/Graphics/SVG/1.1/DTD/svg11.dtd"><svg class="icon" width="64px" height="64.00px" viewBox="0 0 1024 1024" version="1.1" xmlns="http://www.w3.org/2000/svg"><path fill="#000000" d="M879.865 290.111c1.202-10.057 2.307-21.65 2.307-30.186 0-140.438-114.696-254.7-255.653-254.7-89.739 0-172.461 47.141-218.483 122.313-28.582-19.411-62.325-29.868-97.655-29.868-95.736 0-173.648 77.611-173.648 172.996 0 10.507 0.937 20.915 2.808 31.121C57.382 331.54 1.854 409.15 1.854 498.221c0 113.395 90.24 198.924 209.881 198.924h214.223l-112.022 139.35c-1.904 2.39-2.306 5.68-0.969 8.454a8.028 8.028 0 0 0 7.167 4.576l97.874 1.201-121.947 160.204c-2.288 3.008-2.138 7.217 0.334 10.071a8.007 8.007 0 0 0 6.08 2.774 7.99 7.99 0 0 0 3.909-1.004l390.594-215.377c3.209-1.771 4.813-5.462 3.91-8.987a8.09 8.09 0 0 0-7.752-6.047l-121.946-0.634 64.015-93.298c0.281-0.409 0.506-0.843 0.702-1.286h176.337c115.73 0 209.882-93.782 209.882-209.08-0.001-89.503-58.652-169.486-142.261-197.951z m-67.622 358.954H211.735c-92.127 0-161.604-64.849-161.604-150.846 0-74.955 51.017-139.369 124.085-156.658a24.226 24.226 0 0 0 15.519-11.727 24.026 24.026 0 0 0 1.771-19.345c-4.326-12.779-6.515-26.176-6.515-39.825 0-68.891 56.245-124.919 125.388-124.919 33.241 0 64.563 12.813 88.185 36.082 5.613 5.513 13.598 7.935 21.35 6.532a24.118 24.118 0 0 0 17.591-13.698c33.593-73.734 107.763-121.36 189.015-121.36 114.362 0 207.41 92.679 207.41 206.624 0 12.411-3.677 37.669-4.646 43.767a24.906 24.906 0 0 0-0.301 3.858c0 11.71 8.419 21.583 19.745 23.621 72.566 16.672 125.136 82.506 125.136 156.894 0 88.77-72.499 161-161.621 161z"  /></svg>