<?xml version="1.0" standalone="no"?><!DOCTYPE svg PUBLIC "-//W3C//DTD SVG 1.1//EN" "http://www.w3.org/Graphics/SVG/1.1/DTD/svg11.dtd"><svg class="icon" width="64px" height="64.00px" viewBox="0 0 1024 1024" version="1.1" xmlns="http://www.w3.org/2000/svg"><path fill="#000000" d="M879.673427 286.026437c1.187869-9.9719 2.258751-21.315648 2.25875-29.747718 0-141.305407-115.055303-256.278719-256.461699-256.278719-89.718099 0-172.466968 47.146797-218.710865 122.384495-28.54185-19.290871-62.196137-29.663727-97.405251-29.663727-96.183386 0-174.44175 78.198371-174.44175 174.314764 0 10.372855 0.912899 20.645722 2.711701 30.734609C55.493376 327.885817 0.056494 405.867212 0.056494 495.308342c0 114.202398 90.554007 200.330893 210.653754 200.330893h600.517732c116.152182 0 210.645755-94.442578 210.645755-210.50377 0.001-89.926077-58.589535-170.265211-142.200308-199.109028z m-68.444447 359.857289H210.710248c-91.716879 0-160.864248-64.729857-160.864249-150.574384 0-74.819744 50.785396-139.130647 123.497372-156.397741a24.888254 24.888254 0 0 0 16.019233-12.14666c3.404624-6.122324 4.047553-13.366525 1.831797-20.008792-4.316524-12.748593-6.483285-26.117118-6.483284-39.719617 0-68.661423 55.91283-124.542257 124.643245-124.542256 33.034355 0 64.16192 12.766591 87.626331 35.954032a24.912251 24.912251 0 0 0 22.033568 6.79225 24.858257 24.858257 0 0 0 18.152997-14.187434c33.453308-73.681869 107.368152-121.296615 188.30322-121.296615 113.950425 0 206.664194 92.636777 206.664195 206.52121 0 12.381634-3.663596 37.677842-4.635489 43.767171a25.843148 25.843148 0 0 0-0.325964 4.015556c0 12.113663 8.709039 22.319537 20.39475 24.460301 72.209032 16.631165 124.517259 82.347913 124.517259 156.614718 0 88.639219-72.167036 160.748261-160.856249 160.748261z m-588.21309 258.971422c0 32.825378 26.626062 59.461438 59.485436 59.461438 32.850375 0 59.502434-26.636061 59.502433-59.461438 0 0-2.299746-60.196357-59.502433-117.381047-57.201688 57.18469-59.485436 117.381047-59.485436 117.381047z m459.26232 0.034996c0 32.824378 26.635061 59.460438 59.476436 59.460438 32.867373 0 59.518432-26.636061 59.518432-59.460438 0 0-2.299746-60.231353-59.518432-117.382047-57.18469 57.150693-59.476437 117.382047-59.476436 117.382047z m-229.626661 55.762846c0 32.841376 26.609064 59.460438 59.468438 59.460439 32.857374 0 59.502434-26.619063 59.502434-59.460439 0 0-2.283748-60.214355-59.502434-117.382046-57.201688 57.167691-59.468438 117.382047-59.468438 117.382046z"  /></svg>