<?xml version="1.0" standalone="no"?><!DOCTYPE svg PUBLIC "-//W3C//DTD SVG 1.1//EN" "http://www.w3.org/Graphics/SVG/1.1/DTD/svg11.dtd"><svg class="icon" width="64px" height="64.00px" viewBox="0 0 1024 1024" version="1.1" xmlns="http://www.w3.org/2000/svg"><path fill="#000000" d="M928.648 743.556h-75.48c-25.357 0-37.741-24.214-37.741-37.778 0-13.563 67.815 0.037 94.352 0.037 26.537 0 79.168-30.424 75.481-75.481-4.57-55.763-54.621-75.48-75.481-75.48-20.843 0-37.74 1.972-37.74-18.871 0-20.842 17.69-18.889 37.74-18.889S1023 541.288 1023 630.333s-81.969 113.223-94.352 113.223zM739.945 498.241c-21.765-6.709-38.072-16.512-37.741-37.741 0.59-37.611 116.43-23.791 113.223 94.353 0 57.735-33.798 113.222-94.353 113.222H268.186c-29.669 0-37.741 25.356-37.741 56.611 0 31.254 21.819 56.593 56.611 56.593h467.042s80.198 2.967 80.198 75.499c0 72.533-89.044 113.223-113.223 113.223-24.177 0-18.87-10.614-18.87-18.87 0-8.257 8.072-18.871 18.87-18.871 20.823 0 75.482-46.604 75.482-75.499s-16.918-37.741-37.741-37.741H291.773s-99.07-8.992-99.07-113.241c0-19.902 5.529-38.33 14.577-54.527C89.027 610.34 4 498.296 4 366.149 4 199.411 139.17 64.222 305.926 64.222c113.314 0 211.923 62.509 263.559 154.833 12.531-2.156 25.228-3.87 38.367-3.87 111.27 0 203.594 80.31 222.648 186.123 8.182 5.824-108.837-143.665-222.648-148.382-30.186-1.235-58.196 9.066-81.784 24.362-23.256-100.322-112.743-175.325-220.142-175.325-125.072 0-264.194 139.114-264.194 264.186 0 125.035 139.123 264.184 264.194 264.184h415.147c29.669 0 55.284-35.824 56.611-56.61 2.36-36.801-6.743-65.936-37.739-75.482z"  /></svg>