<?xml version="1.0" standalone="no"?><!DOCTYPE svg PUBLIC "-//W3C//DTD SVG 1.1//EN" "http://www.w3.org/Graphics/SVG/1.1/DTD/svg11.dtd"><svg class="icon" width="64px" height="64.00px" viewBox="0 0 1024 1024" version="1.1" xmlns="http://www.w3.org/2000/svg"><path fill="#000000" d="M329.233 873.807h-22.28l13.19-13.201a7.059 7.059 0 0 0 0-9.959 7.011 7.011 0 0 0-9.942 0l-23.129 23.16h-27.868l49.511-49.578a7.028 7.028 0 0 0 0-9.958 7.018 7.018 0 0 0-9.925 0l-49.528 49.588V835.94l23.126-23.141c2.757-2.758 2.757-7.22 0-9.959a6.987 6.987 0 0 0-9.925 0l-13.201 13.212v-22.318a7.035 7.035 0 1 0-14.07 0v22.313l-13.184-13.206c-2.757-2.758-7.202-2.758-9.942 0-2.74 2.739-2.74 7.201 0 9.959l23.126 23.141v27.907l-49.511-49.577c-2.757-2.741-7.202-2.741-9.942 0a7.06 7.06 0 0 0 0 9.958l49.518 49.578h-27.858l-23.13-23.16c-2.757-2.74-7.219-2.74-9.959 0-2.74 2.757-2.74 7.22 0 9.959l13.189 13.201h-22.28c-3.876 0-7.018 3.157-7.018 7.052 0 3.876 3.142 7.034 7.018 7.034h22.292l-13.201 13.201a7.06 7.06 0 0 0 0 9.959c1.37 1.37 3.175 2.055 4.979 2.055s3.593-0.685 4.979-2.055l23.144-23.16h27.843l-49.517 49.577a7.06 7.06 0 0 0 0 9.959 7.022 7.022 0 0 0 4.98 2.056 7.01 7.01 0 0 0 4.962-2.056l49.511-49.578v27.908L212.065 948.9c-2.74 2.757-2.74 7.218 0 9.959 2.741 2.757 7.186 2.757 9.942 0l13.184-13.206v22.313a7.025 7.025 0 0 0 7.035 7.035 7.025 7.025 0 0 0 7.035-7.035v-22.318l13.201 13.212a7.027 7.027 0 0 0 4.962 2.072 7.03 7.03 0 0 0 4.963-2.072c2.757-2.741 2.757-7.202 0-9.959l-23.126-23.141v-27.918l49.528 49.588a7.01 7.01 0 0 0 4.962 2.056 6.983 6.983 0 0 0 4.963-2.056 7.03 7.03 0 0 0 0-9.959l-49.51-49.577h27.884l23.113 23.16a6.984 6.984 0 0 0 4.963 2.055 7.02 7.02 0 0 0 4.979-2.055 7.059 7.059 0 0 0 0-9.959l-13.179-13.201h22.269c3.876 0 7.018-3.158 7.018-7.034 0-3.896-3.142-7.053-7.018-7.053z m273.771 0h-22.281l13.19-13.201a7.059 7.059 0 0 0 0-9.959c-2.74-2.756-7.185-2.756-9.942 0l-23.13 23.16h-27.867l49.511-49.578a7.03 7.03 0 0 0 0-9.958 7.019 7.019 0 0 0-9.926 0l-49.527 49.588V835.94l23.127-23.141c2.756-2.758 2.756-7.22 0-9.959a6.988 6.988 0 0 0-9.926 0l-13.201 13.212v-22.318a7.035 7.035 0 0 0-14.069 0v22.313l-13.185-13.206c-2.757-2.758-7.202-2.758-9.942 0-2.741 2.739-2.741 7.201 0 9.959l23.126 23.142v27.907l-49.511-49.578c-2.757-2.741-7.202-2.741-9.942 0a7.057 7.057 0 0 0 0 9.958l49.518 49.578h-27.858l-23.129-23.16c-2.758-2.74-7.22-2.74-9.959 0-2.74 2.757-2.74 7.22 0 9.959l13.189 13.201h-22.28c-3.877 0-7.018 3.157-7.018 7.052 0 3.876 3.141 7.034 7.018 7.034h22.291l-13.201 13.201a7.06 7.06 0 0 0 0 9.959 7.02 7.02 0 0 0 4.979 2.055 7.05 7.05 0 0 0 4.98-2.055l23.144-23.16h27.844L449.51 937.47a7.059 7.059 0 0 0 0 9.959 7.02 7.02 0 0 0 4.979 2.056 7.012 7.012 0 0 0 4.963-2.056l49.511-49.578v27.907L485.837 948.9c-2.741 2.757-2.741 7.218 0 9.959 2.74 2.757 7.185 2.757 9.942 0l13.185-13.206v22.313a7.023 7.023 0 0 0 7.035 7.035 7.024 7.024 0 0 0 7.034-7.035v-22.318l13.201 13.212a7.028 7.028 0 0 0 4.963 2.072 7.033 7.033 0 0 0 4.963-2.072c2.756-2.741 2.756-7.202 0-9.959l-23.127-23.141v-27.918l49.527 49.588a7.012 7.012 0 0 0 4.963 2.056 6.987 6.987 0 0 0 4.963-2.056 7.031 7.031 0 0 0 0-9.959l-49.511-49.577h27.884l23.113 23.16a6.982 6.982 0 0 0 4.963 2.055 7.017 7.017 0 0 0 4.979-2.055 7.059 7.059 0 0 0 0-9.959l-13.179-13.201h22.27c3.877 0 7.019-3.158 7.019-7.034-0.001-3.896-3.143-7.053-7.02-7.053z m256.66 0h-22.281l13.191-13.201a7.062 7.062 0 0 0 0-9.959 7.011 7.011 0 0 0-9.942 0l-23.131 23.16h-27.868l49.511-49.578a7.027 7.027 0 0 0 0-9.958 7.018 7.018 0 0 0-9.925 0l-49.527 49.588V835.94l23.126-23.141c2.757-2.758 2.757-7.22 0-9.959a6.988 6.988 0 0 0-9.926 0l-13.2 13.211v-22.317a7.036 7.036 0 0 0-14.07 0v22.312l-13.184-13.205c-2.756-2.758-7.201-2.758-9.942 0-2.74 2.739-2.74 7.201 0 9.959l23.126 23.141v27.907l-49.511-49.577c-2.739-2.741-7.202-2.741-9.941 0a7.06 7.06 0 0 0 0 9.958l49.518 49.578H727.83l-23.13-23.16c-2.758-2.74-7.218-2.74-9.958 0-2.741 2.757-2.741 7.22 0 9.959l13.189 13.201h-22.28c-3.877 0-7.019 3.157-7.019 7.052 0 3.876 3.142 7.034 7.019 7.034h22.291l-13.2 13.201a7.059 7.059 0 0 0 0 9.959c1.37 1.37 3.174 2.055 4.979 2.055s3.594-0.685 4.979-2.055l23.144-23.16h27.844l-49.517 49.577a7.06 7.06 0 0 0 0 9.959 7.022 7.022 0 0 0 4.979 2.056 7.01 7.01 0 0 0 4.963-2.056l49.511-49.578v27.908L742.498 948.9c-2.74 2.757-2.74 7.218 0 9.959 2.741 2.757 7.187 2.757 9.942 0l13.184-13.205v22.312c0 3.894 3.143 7.035 7.035 7.035s7.035-3.142 7.035-7.035v-22.317l13.2 13.211c1.371 1.37 3.175 2.072 4.963 2.072s3.593-0.702 4.963-2.072c2.757-2.741 2.757-7.202 0-9.959l-23.126-23.141v-27.918l49.527 49.588c1.37 1.37 3.174 2.056 4.962 2.056s3.593-0.686 4.963-2.056a7.028 7.028 0 0 0 0-9.959l-49.511-49.577h27.885l23.114 23.16c1.37 1.37 3.157 2.055 4.962 2.055s3.61-0.685 4.98-2.055a7.062 7.062 0 0 0 0-9.959l-13.18-13.201h22.27c3.876 0 7.018-3.158 7.018-7.034-0.002-3.896-3.144-7.053-7.02-7.053z m20.987-551.585c1.204-9.875 2.34-21.306 2.34-29.71 0-137.855-114.712-250.01-255.691-250.01-89.764 0-172.542 46.335-218.562 120.175-28.59-19.115-62.376-29.392-97.717-29.392-95.746 0-173.63 76.146-173.63 169.753 0 10.36 0.953 20.603 2.824 30.663C58.002 362.875 2.459 439.072 2.459 526.496c0 111.304 90.232 195.235 209.874 195.235h600.795c115.73 0 209.872-92.036 209.872-205.193 0-87.877-58.684-166.395-142.349-194.316z m-67.523 352.539H212.333c-92.271 0-161.833-63.729-161.833-148.265 0-73.639 51.082-136.952 124.236-153.945 6.583-1.521 12.198-5.682 15.473-11.463a22.94 22.94 0 0 0 1.738-18.881c-4.311-12.549-6.517-25.716-6.517-39.168 0-67.691 56.345-122.783 125.59-122.783 33.269 0 64.633 12.599 88.327 35.475 5.582 5.414 13.535 7.787 21.238 6.399 7.736-1.404 14.253-6.399 17.511-13.401C471.7 136.293 545.974 89.49 627.299 89.49c114.494 0 207.635 91.083 207.635 203.022 0 12.198-3.643 37.011-4.646 42.994a23.75 23.75 0 0 0-0.302 3.776c0 11.446 8.389 21.071 19.685 23.093 72.653 16.375 125.289 81.058 125.289 154.164 0 87.24-72.587 158.222-161.832 158.222z"  /></svg>