<?xml version="1.0" standalone="no"?><!DOCTYPE svg PUBLIC "-//W3C//DTD SVG 1.1//EN" "http://www.w3.org/Graphics/SVG/1.1/DTD/svg11.dtd"><svg class="icon" width="64px" height="64.00px" viewBox="0 0 1024 1024" version="1.1" xmlns="http://www.w3.org/2000/svg"><path fill="#000000" d="M465.823 874.752h-22.29l13.195-13.206a7.062 7.062 0 0 0 0-9.965 7.012 7.012 0 0 0-9.947 0l-23.14 23.171h-27.883l49.536-49.603a7.033 7.033 0 0 0 0-9.965 7.024 7.024 0 0 0-9.93 0l-49.554 49.614v-27.932l23.138-23.153c2.759-2.759 2.759-7.222 0-9.965a6.994 6.994 0 0 0-9.931 0l-13.207 13.219v-22.33a7.039 7.039 0 0 0-14.077 0v22.324l-13.191-13.213c-2.759-2.758-7.206-2.758-9.948 0-2.742 2.743-2.742 7.206 0 9.965l23.139 23.154v27.921l-49.537-49.604c-2.758-2.741-7.206-2.741-9.947 0a7.064 7.064 0 0 0 0 9.965l49.542 49.603h-27.873l-23.141-23.171a7.065 7.065 0 0 0-9.964 0c-2.742 2.759-2.742 7.222 0 9.965l13.195 13.206h-22.291c-3.879 0-7.022 3.16-7.022 7.056 0 3.88 3.143 7.038 7.022 7.038h22.303l-13.208 13.208a7.064 7.064 0 0 0 0 9.965c1.371 1.37 3.176 2.056 4.981 2.056s3.595-0.686 4.982-2.056l23.157-23.173h27.858l-49.544 49.604a7.063 7.063 0 0 0 0 9.964c1.371 1.371 3.176 2.057 4.982 2.057s3.595-0.686 4.965-2.057l49.537-49.604v27.922l-23.139 23.154c-2.742 2.759-2.742 7.223 0 9.964 2.742 2.759 7.189 2.759 9.948 0l13.191-13.212v22.324a7.027 7.027 0 0 0 7.039 7.038 7.027 7.027 0 0 0 7.038-7.038v-22.331l13.207 13.219a7.033 7.033 0 0 0 4.966 2.073 7.03 7.03 0 0 0 4.965-2.073c2.759-2.741 2.759-7.205 0-9.964l-23.138-23.153V898.8l49.554 49.614a7.012 7.012 0 0 0 4.965 2.057 7.012 7.012 0 0 0 4.965-2.057 7.032 7.032 0 0 0 0-9.964l-49.537-49.604h27.899l23.126 23.173a6.992 6.992 0 0 0 4.966 2.056 7.024 7.024 0 0 0 4.981-2.056 7.062 7.062 0 0 0 0-9.965l-13.187-13.208h22.282c3.879 0 7.022-3.158 7.022-7.038 0.001-3.896-3.141-7.056-7.02-7.056z m273.916 0h-22.29l13.194-13.206a7.062 7.062 0 0 0 0-9.965 7.012 7.012 0 0 0-9.947 0l-23.14 23.171h-27.884l49.536-49.603a7.033 7.033 0 0 0 0-9.965 7.025 7.025 0 0 0-9.931 0l-49.554 49.614v-27.931l23.139-23.154c2.759-2.759 2.759-7.222 0-9.965a6.995 6.995 0 0 0-9.932 0l-13.207 13.219v-22.33a7.04 7.04 0 0 0-14.077 0v22.325l-13.19-13.214c-2.759-2.758-7.206-2.758-9.948 0-2.742 2.743-2.742 7.206 0 9.965l23.139 23.154v27.921l-49.537-49.604c-2.758-2.741-7.205-2.741-9.947 0a7.064 7.064 0 0 0 0 9.965l49.542 49.603h-27.872l-23.141-23.171a7.066 7.066 0 0 0-9.965 0c-2.741 2.759-2.741 7.222 0 9.965l13.196 13.206h-22.292c-3.878 0-7.021 3.16-7.021 7.056 0 3.88 3.143 7.038 7.021 7.038h22.304l-13.208 13.208a7.066 7.066 0 0 0 0 9.965 7.027 7.027 0 0 0 4.982 2.056 7.054 7.054 0 0 0 4.982-2.056l23.156-23.173h27.858l-49.544 49.604a7.063 7.063 0 0 0 0 9.964c1.371 1.371 3.177 2.057 4.982 2.057s3.595-0.686 4.965-2.057l49.537-49.604v27.921l-23.139 23.154c-2.742 2.759-2.742 7.223 0 9.964 2.742 2.759 7.189 2.759 9.948 0l13.19-13.213v22.325c0 3.896 3.143 7.038 7.038 7.038s7.039-3.143 7.039-7.038v-22.33l13.207 13.218a7.035 7.035 0 0 0 4.966 2.073 7.035 7.035 0 0 0 4.966-2.073c2.759-2.741 2.759-7.205 0-9.964l-23.139-23.154V898.8l49.554 49.614a7.014 7.014 0 0 0 4.965 2.057 7.014 7.014 0 0 0 4.966-2.057 7.032 7.032 0 0 0 0-9.964l-49.537-49.604h27.899l23.125 23.173a6.993 6.993 0 0 0 4.967 2.056c1.805 0 3.61-0.686 4.98-2.056a7.062 7.062 0 0 0 0-9.965l-13.187-13.208h22.282c3.879 0 7.021-3.158 7.021-7.038 0.004-3.896-3.139-7.056-7.017-7.056z m140.835-551.877c1.204-9.88 2.341-21.315 2.341-29.725 0-137.927-114.772-250.142-255.826-250.142-89.812 0-172.635 46.361-218.678 120.24-28.604-19.126-62.41-29.408-97.769-29.408-95.797 0-173.722 76.186-173.722 169.844 0 10.365 0.954 20.613 2.825 30.678C57.49 363.552 1.918 439.788 1.918 527.26c0 111.361 90.28 195.339 209.984 195.339h601.113c115.792 0 209.984-92.087 209.984-205.304 0.001-87.923-58.715-166.482-142.425-194.42z m-67.558 352.728H211.903c-92.32 0-161.919-63.764-161.919-148.343 0-73.679 51.108-137.026 124.302-154.029 6.586-1.52 12.204-5.684 15.481-11.469a22.952 22.952 0 0 0 1.739-18.891c-4.313-12.556-6.521-25.73-6.521-39.188 0-67.727 56.375-122.848 125.657-122.848 33.287 0 64.667 12.605 88.374 35.493 5.584 5.417 13.542 7.791 21.25 6.403 7.741-1.404 14.261-6.403 17.521-13.408C471.407 136.849 545.721 90.02 627.089 90.02c114.555 0 207.744 91.133 207.744 203.13 0 12.205-3.645 37.032-4.647 43.016a23.904 23.904 0 0 0-0.301 3.779c0 11.453 8.392 21.082 19.694 23.105 72.691 16.384 125.355 81.101 125.355 154.245 0.001 87.287-72.625 158.308-161.918 158.308z"  /></svg>