<?xml version="1.0" standalone="no"?><!DOCTYPE svg PUBLIC "-//W3C//DTD SVG 1.1//EN" "http://www.w3.org/Graphics/SVG/1.1/DTD/svg11.dtd"><svg class="icon" width="64px" height="64.00px" viewBox="0 0 1024 1024" version="1.1" xmlns="http://www.w3.org/2000/svg"><path fill="#000000" d="M731.719 844.202H191.181C82.282 844.202 0.153 766.64 0.153 663.757c0-80.124 49.795-150.04 123.66-177.438a156.756 156.756 0 0 1-2.25-26.584c0-86.664 71.063-157.191 158.414-157.191 31.458 0 61.566 9.071 87.25 25.955 42.023-66.943 116.551-108.831 197.295-108.831 128.06 0 232.254 103.378 232.254 230.453 0 7.27-0.9 16.969-1.902 25.632 75.25 26.294 127.873 98.333 127.873 178.916-0.003 104.517-85.696 189.533-191.028 189.533zM279.977 349.799c-61.091 0-110.793 49.328-110.793 109.937 0 12.024 1.938 23.832 5.75 35.06a23.474 23.474 0 0 1-1.73 19.007c-3.255 5.812-8.816 9.988-15.322 11.534-64.83 15.269-110.099 72.19-110.099 138.42 0 75.929 61.644 133.189 143.396 133.189h540.538c79.069 0 143.396-63.817 143.396-142.277 0-65.703-46.594-123.847-110.921-138.625-11.177-2.021-19.5-11.703-19.5-23.22 0-1.257 0.104-2.565 0.307-3.788 0.814-5.096 4.146-28.027 4.146-38.916 0-101.018-82.825-183.197-184.624-183.197-72.293 0-138.328 42.245-168.215 107.591-3.219 7.032-9.699 12.077-17.354 13.487-7.617 1.393-15.517-1.002-21.063-6.438-20.899-20.468-48.568-31.764-77.912-31.764z"  /><path fill="#000000" d="M881.366 604.424c-8.814 0-17.292-4.875-21.42-13.267-5.759-11.723-0.864-25.87 10.956-31.595C945.2 523.569 987.021 441.932 972.6 361.026c-8.681-48.648-35.927-91.063-76.762-119.379-40.803-28.333-90.301-39.154-139.34-30.576-41.7 7.321-78.596 27.739-106.707 59.044-8.747 9.75-23.799 10.617-33.615 1.937-9.818-8.697-10.701-23.611-1.938-33.361 35.298-39.323 81.604-64.973 133.954-74.162 61.559-10.804 123.711 2.819 174.959 38.389 51.23 35.552 85.44 88.788 96.346 149.887 18.107 101.542-34.414 204.022-127.703 249.222a23.831 23.831 0 0 1-10.428 2.397z"  /></svg>