<?xml version="1.0" standalone="no"?><!DOCTYPE svg PUBLIC "-//W3C//DTD SVG 1.1//EN" "http://www.w3.org/Graphics/SVG/1.1/DTD/svg11.dtd"><svg class="icon" width="64px" height="64.00px" viewBox="0 0 1024 1024" version="1.1" xmlns="http://www.w3.org/2000/svg"><path fill="#000000" d="M948.929 750.695H84.706c-14.165 0-25.65-11.485-25.65-25.642 0-14.174 11.485-25.657 25.65-25.657h864.223c14.188 0 25.658 11.483 25.658 25.657-0.001 14.157-11.47 25.642-25.658 25.642zM998.342 645.76H30.094c-14.173 0-25.65-11.469-25.65-25.641 0-14.173 11.478-25.658 25.65-25.658h968.249c14.173 0 25.657 11.485 25.657 25.658 0 14.172-11.485 25.641-25.658 25.641zM969.729 540.842H65.167c-14.173 0-25.65-11.486-25.65-25.659 0-14.172 11.478-25.656 25.65-25.656h904.562c14.157 0 25.643 11.484 25.643 25.656-0.003 14.172-11.486 25.659-25.643 25.659zM894.968 435.906H151.531c-14.173 0-25.649-11.485-25.649-25.658s11.477-25.641 25.649-25.641h743.438c14.172 0 25.648 11.468 25.648 25.641s-11.477 25.658-25.649 25.658zM789.106 226.052h-265.97c-14.165 0-25.649-11.485-25.649-25.658 0-14.172 11.485-25.658 25.649-25.658h265.97c14.173 0 25.658 11.485 25.658 25.658s-11.485 25.658-25.658 25.658zM368.404 326.347H220.4c-14.173 0-25.657-11.485-25.657-25.675 0-14.156 11.484-25.642 25.657-25.642h148.004c14.173 0 25.658 11.485 25.658 25.642 0 14.189-11.486 25.675-25.658 25.675zM840.411 328.65H471.828c-14.173 0-25.648-11.469-25.648-25.642s11.477-25.658 25.648-25.658h368.583c14.175 0 25.658 11.485 25.658 25.658 0.001 14.173-11.483 25.642-25.658 25.642zM880.519 853.311H170.227c-14.173 0-25.658-11.468-25.658-25.656 0-14.157 11.485-25.643 25.658-25.643h710.292c14.174 0 25.658 11.484 25.658 25.643 0 14.188-11.484 25.656-25.658 25.656z"  /></svg>