<?xml version="1.0" standalone="no"?><!DOCTYPE svg PUBLIC "-//W3C//DTD SVG 1.1//EN" "http://www.w3.org/Graphics/SVG/1.1/DTD/svg11.dtd"><svg class="icon" width="64px" height="63.81px" viewBox="0 0 1027 1024" version="1.1" xmlns="http://www.w3.org/2000/svg"><path fill="#000000" d="M1026.05 211.777C1026.05 100.268 796.367 9.863 513.025 9.863S-0.001 100.268-0.001 211.777c0 35.527 23.312 68.91 64.235 97.91-1.03 5.489-1.6 11.026-1.6 16.625 0 43.394 30.944 83.591 83.599 116.509a106.347 106.347 0 0 0-0.084 4.038c0 46.691 30.667 89.674 82.151 123.874a84.058 84.058 0 0 0-1.603 16.264c0 40.403 28.725 77.334 76.184 105.627-6.873-3.313-13.172-6.784-18.803-10.396-6.257 10.429-9.672 21.451-9.672 32.861 0 23.778 14.563 47.882 39.647 68.904-2.512 7.744-3.841 15.781-3.841 24.017 0 21.352 8.953 42.568 24.481 61.261-2.345 8.419-3.623 17.218-3.623 26.301 0 58.996 15.255 114.495 118.973 117.378 68.069 1.871 109.558-48.258 115.976-96.457 48.169-19.901 76.355-55.951 80.646-90.816 80.004-29.7 128.845-84.019 128.845-128.664 0-1.759-0.104-3.492-0.28-5.207 46.649-28.186 74.838-64.791 74.838-104.809 0-6.093-0.684-12.105-1.979-18.024 49.898-33.908 79.521-76.22 79.521-122.113 0-9.3-1.237-18.464-3.597-27.435 32.786-27.862 51.325-59.529 51.325-93.112 0-8.214-1.117-16.313-3.271-24.271 34.54-27.165 53.983-57.82 53.983-90.265zM94.269 328.463c0.445 0.247 0.894 0.492 1.341 0.738l-0.155 0.116-1.186-0.854z m1.35 0.744c24.174 13.289 52.344 25.375 83.816 35.988-12.182 14.216-21.279 29.295-26.857 45.01-35.187-23.831-55.689-51.474-56.959-80.998zM452.127 981.58c-67.058 2.821-87.356-38.395-88.206-85.542 30.445 21.603 71.38 35.81 116.303 36.035 16.57 0.087 32.034-1.342 46.338-4.019-7.162 36.372-38.195 52.005-74.435 53.526z m31.082-82.654c-86.68 2.649-139.029-44.205-140.171-94.749 44.392 25.904 106.689 43.524 175.957 43.524 32.951 0 63.613-3.99 91.453-10.891-16.612 35.303-62.089 60.128-127.239 62.116z m44.744-84.394C401.004 817.334 310.21 759.463 310.21 706.05c0-2.997 0.252-5.925 0.757-8.802 56.867 31.378 137.707 50.989 227.414 50.989 74.685 0 143.223-13.594 196.902-36.252-11.877 49.828-95.913 100.106-207.33 102.547z m11.921-99.443c-159.534 3.767-275.11-52.37-277.339-124.458 70.552 35.952 167.435 58.142 274.353 58.142 109.971 0 209.322-23.474 280.323-61.255-2.27 72.039-125.972 123.984-277.337 127.571z m360.497-268.23c0 91.55-163.756 165.759-365.751 165.759-192.204 0-343.337-67.188-357.54-152.573 83.611 41.815 205.8 68.181 341.916 68.181 159.014 0 299.023-35.988 380.716-90.557 0.394 3.045 0.659 6.105 0.659 9.19z m43.147-120.547c0 91.55-191.261 165.759-427.181 165.759-139.548 0-261.221-25.968-337.348-66.131 5.176-17.898 16.88-34.837 33.835-50.395 84.402 24.012 188.099 38.166 300.201 38.166 180.284 0 338.837-36.603 430.331-91.957 0.105 1.515 0.162 3.034 0.162 4.558z m14.738-54.915c-54.055-84.84-230.242-147.02-439.261-147.02-89.607 0-173.081 11.472-243.589 31.206l7.996 32.289c66.316-17.259 146.149-27.32 232.935-27.32 203.903 0 374.439 55.436 416.973 129.589-81.012 52.025-240.17 87.396-423.271 87.396-97.261 0-187.765-9.98-263.391-27.135 67.087-41.25 174.324-68.092 287.972-69.302 54.762-0.572 106.681 4.642 153.325 14.355l6.606-33.352c-48.24-11.001-101.529-17.157-157.663-17.157-139.792 0-262.437 37.938-331.491 94.973C98.201 309.518 29.824 263.405 29.824 211.777c0-91.53 214.991-165.739 480.214-165.739 265.225 0 480.226 74.209 480.226 165.739 0 21.017-11.339 41.119-32.008 59.62z"  /></svg>