<?xml version="1.0" standalone="no"?><!DOCTYPE svg PUBLIC "-//W3C//DTD SVG 1.1//EN" "http://www.w3.org/Graphics/SVG/1.1/DTD/svg11.dtd"><svg class="icon" width="64px" height="64.00px" viewBox="0 0 1024 1024" version="1.1" xmlns="http://www.w3.org/2000/svg"><path fill="#000000" d="M555.59 876.742h-22.684l13.43-13.439a7.194 7.194 0 0 0 0-10.142 7.137 7.137 0 0 0-10.123 0l-23.55 23.581h-28.372l50.407-50.476a7.156 7.156 0 0 0 0-10.14 7.145 7.145 0 0 0-10.104 0l-50.424 50.486v-28.425l23.544-23.558c2.808-2.809 2.808-7.352 0-10.141a7.116 7.116 0 0 0-10.107 0l-13.438 13.45v-22.723a7.163 7.163 0 0 0-14.326 0v22.719l-13.424-13.446c-2.806-2.808-7.333-2.808-10.122 0-2.79 2.789-2.79 7.332 0 10.141l23.546 23.561v28.413l-50.409-50.478c-2.806-2.79-7.332-2.79-10.122 0a7.188 7.188 0 0 0 0 10.14l50.414 50.476h-28.362l-23.566-23.581c-2.79-2.79-7.313-2.79-10.122 0-2.79 2.81-2.79 7.352 0 10.142l13.43 13.439h-22.684c-3.948 0-7.147 3.216-7.147 7.177 0 3.948 3.199 7.165 7.147 7.165h22.692l-13.438 13.439a7.187 7.187 0 0 0 0 10.139 7.148 7.148 0 0 0 5.069 2.092 7.108 7.108 0 0 0 5.053-2.092l23.581-23.578h28.348l-50.414 50.476a7.188 7.188 0 0 0 0 10.14 7.144 7.144 0 0 0 5.069 2.091c1.82 0 3.659-0.694 5.053-2.091l50.409-50.478v28.411L436.3 953.195c-2.79 2.807-2.79 7.349 0 10.14 2.79 2.807 7.316 2.807 10.122 0l13.424-13.446v22.717a7.151 7.151 0 0 0 7.162 7.163 7.152 7.152 0 0 0 7.164-7.163v-22.72l13.438 13.449a7.157 7.157 0 0 0 5.053 2.11 7.16 7.16 0 0 0 5.054-2.11c2.808-2.791 2.808-7.333 0-10.14l-23.544-23.561v-28.422l50.424 50.486a7.13 7.13 0 0 0 5.051 2.091 7.126 7.126 0 0 0 5.053-2.091 7.156 7.156 0 0 0 0-10.14l-50.407-50.476h28.389l23.532 23.578a7.111 7.111 0 0 0 5.053 2.092 7.148 7.148 0 0 0 5.07-2.092 7.19 7.19 0 0 0 0-10.139l-13.415-13.439h22.669c3.947 0 7.146-3.217 7.146-7.165-0.001-3.959-3.201-7.175-7.148-7.175z m465.323-629.56c-10.923-61.193-45.185-114.51-96.493-150.117-51.327-35.625-113.576-49.268-175.228-38.449-47.316 8.306-89.697 30.041-123.498 63.146a233.795 233.795 0 0 0-60.456-7.923c-80.859 0-155.511 41.953-197.6 108.998-25.724-16.91-55.869-25.994-87.375-25.994-87.496 0-158.659 70.636-158.659 157.433 0 8.981 0.75 17.863 2.247 26.625C49.864 408.339 0 478.364 0 558.611c0 103.026 82.255 180.724 191.321 180.724h541.367c105.495 0 191.322-85.148 191.322-189.828 0-22.071-3.95-43.499-11.22-63.528 80.949-49.439 124.935-144.517 108.123-238.797zM732.689 692.003H191.322c-81.88 0-143.619-57.347-143.619-133.392 0-66.331 45.338-123.34 110.258-138.635 6.516-1.548 12.095-5.731 15.362-11.551 3.233-5.818 3.879-12.743 1.735-19.036-3.828-11.247-5.768-23.071-5.768-35.114 0-60.702 49.779-110.105 110.973-110.105 29.38 0 57.093 11.313 78.018 31.813a24.054 24.054 0 0 0 21.096 6.448 23.88 23.88 0 0 0 17.387-13.507c29.94-65.447 96.069-107.756 168.474-107.756 101.956 0 184.907 82.304 184.907 183.478 0 10.905-3.335 33.872-4.152 38.975a23.596 23.596 0 0 0-0.305 3.794c0 11.535 8.335 21.231 19.529 23.255 64.427 14.803 111.092 73.035 111.092 138.837 0 78.581-64.426 142.496-143.62 142.496z m158.402-248.387c-22.719-33.368-55.855-59.565-95.166-73.298 1.021-8.676 1.923-18.392 1.923-25.673 0-87.771-49.638-164.25-122.515-203.269 23.8-18.456 51.704-30.796 82.178-36.146 49.114-8.591 98.688 2.246 139.553 30.622 40.897 28.359 68.186 70.839 76.878 119.564 13.165 73.846-20.462 148.293-82.851 188.2z"  /></svg>