<?xml version="1.0" standalone="no"?><!DOCTYPE svg PUBLIC "-//W3C//DTD SVG 1.1//EN" "http://www.w3.org/Graphics/SVG/1.1/DTD/svg11.dtd"><svg class="icon" width="64px" height="64.00px" viewBox="0 0 1024 1024" version="1.1" xmlns="http://www.w3.org/2000/svg"><path fill="#000000" d="M881.179 304.984c1.169-9.944 2.235-21.257 2.235-29.666 0-140.92-114.725-255.579-255.745-255.579-89.48 0-172.004 47.018-218.121 122.05-28.464-19.237-62.018-29.583-97.14-29.583-95.921 0-173.973 77.985-173.973 173.84 0 10.344 0.917 20.589 2.703 30.65C59.249 346.729 3.955 424.497 3.955 513.695c0 113.891 90.315 199.784 210.079 199.784h598.87c115.844 0 210.096-94.187 210.096-209.929 0-89.68-58.446-169.801-141.821-198.566z m-68.274 358.875h-598.87c-91.466 0-160.425-64.554-160.425-150.164 0-74.615 50.655-138.752 123.167-155.97a24.87 24.87 0 0 0 15.968-12.114 24.828 24.828 0 0 0 1.819-19.955c-4.305-12.713-6.458-26.045-6.458-39.609 0-68.475 55.778-124.203 124.302-124.203 32.953 0 63.987 12.73 87.395 35.873a24.884 24.884 0 0 0 21.974 6.758 24.765 24.765 0 0 0 18.086-14.149c33.37-73.48 107.083-120.966 187.805-120.966 113.624 0 206.093 92.384 206.093 205.958 0 12.347-3.655 37.575-4.622 43.648a24.634 24.634 0 0 0-0.317 4.004c0 12.08 8.676 22.258 20.322 24.376 72.012 16.601 124.186 82.14 124.186 156.204 0 88.397-71.962 160.309-160.425 160.309zM227.066 890.89c-9.961 31.902 8.526 57.78 41.278 57.78 32.769 0 67.424-25.878 77.384-57.78 0 0 15.968-58.529-23.726-114.092-74.397 55.562-94.936 114.092-94.936 114.092z m458 0.033c-9.944 31.885 8.542 57.763 41.278 57.763 32.785 0 67.44-25.878 77.384-57.763 0 0 15.985-58.529-23.741-114.107-74.366 55.578-94.921 114.107-94.921 114.107z m-245.919 54.193c-9.961 31.9 8.508 57.763 41.278 57.763 32.769 0 67.423-25.862 77.368-57.763 0 0 15.983-58.531-23.726-114.092-74.381 55.561-94.92 114.092-94.92 114.092z m13.632-170.819c0-18.871-15.3-34.171-34.17-34.171-18.871 0-34.17 15.3-34.17 34.171 0 18.869 15.299 34.17 34.17 34.17 18.87 0 34.17-15.301 34.17-34.17z m187.938-34.171c-18.87 0-34.17 15.3-34.17 34.171 0 18.869 15.3 34.17 34.17 34.17 18.871 0 34.171-15.301 34.171-34.17 0-18.871-15.3-34.171-34.171-34.171z"  /></svg>