<?xml version="1.0" standalone="no"?><!DOCTYPE svg PUBLIC "-//W3C//DTD SVG 1.1//EN" "http://www.w3.org/Graphics/SVG/1.1/DTD/svg11.dtd"><svg class="icon" width="64px" height="63.81px" viewBox="0 0 1027 1024" version="1.1" xmlns="http://www.w3.org/2000/svg"><path fill="#000000" d="M884.441 285.248c1.23-9.921 2.36-21.398 2.36-29.865 0-138.479-115.516-251.161-257.517-251.161-90.398 0-173.769 46.518-220.105 120.719-28.793-19.199-62.819-29.519-98.418-29.519-96.434 0-174.864 76.499-174.864 170.544 0 10.385 0.941 20.704 2.839 30.808C55.946 326.062 0 402.627 0 490.47c0 111.838 90.877 196.176 211.369 196.176h605.09c116.542 0 211.352-92.49 211.352-206.164 0-88.307-59.111-167.188-143.37-195.234z m-67.982 354.186h-605.09c-92.929 0-162.981-64.03-162.981-148.963 0-73.985 51.449-137.586 125.108-154.652 6.635-1.521 12.294-5.705 15.594-11.51 3.3-5.82 3.932-12.699 1.761-18.983-4.36-12.601-6.566-25.863-6.566-39.357 0-68.017 56.731-123.348 126.476-123.348 33.512 0 65.11 12.65 88.945 35.637 5.642 5.424 13.628 7.887 21.408 6.399 7.762-1.405 14.361-6.432 17.61-13.444 33.871-72.781 108.677-119.795 190.56-119.795 115.311 0 209.129 91.515 209.129 203.965 0 11.592-3.386 35.19-4.685 43.31-1.983 12.287 6.156 23.962 18.603 26.674 73.641 16.14 127.091 81.361 127.091 155.115 0 87.646-73.095 158.952-162.963 158.952zM111.583 752.297c-13.285-1.818-25.476 7.161-27.339 20.06l-33.65 213.027c-1.864 12.899 7.352 24.839 20.586 26.674 1.129 0.148 2.292 0.232 3.419 0.232 11.85 0 22.211-8.518 23.904-20.292l33.649-213.026c1.864-12.899-7.351-24.838-20.569-26.675z m394.97 0c-13.286-1.785-25.478 7.145-27.358 20.06L446.931 993.9c-1.88 12.915 7.318 24.854 20.552 26.689 1.163 0.15 2.308 0.232 3.437 0.232 11.849 0 22.211-8.501 23.92-20.291l32.248-221.56c1.898-12.897-7.301-24.836-20.535-26.673z m138.273 0c-13.233-1.785-25.477 7.145-27.34 20.06L585.223 993.9c-1.882 12.915 7.318 24.854 20.552 26.689 1.162 0.15 2.291 0.232 3.438 0.232 11.848 0 22.21-8.501 23.919-20.291l32.248-221.56c1.88-12.897-7.32-24.836-20.554-26.673z m272.394 0c-13.32-1.818-25.478 7.161-27.341 20.06l-33.648 213.027c-1.865 12.899 7.351 24.839 20.584 26.674 1.13 0.148 2.293 0.232 3.403 0.232 11.866 0 22.21-8.518 23.921-20.292l33.649-213.026c1.864-12.899-7.352-24.838-20.568-26.675z m-673.296 0c-13.285-1.785-25.476 7.145-27.357 20.06L184.302 993.9c-1.88 12.915 7.318 24.854 20.552 26.689 1.163 0.15 2.308 0.232 3.437 0.232 11.849 0 22.21-8.501 23.92-20.291l32.248-221.56c1.898-12.897-7.302-24.836-20.535-26.673z m540.973 0c-13.234-1.785-25.478 7.145-27.341 20.06L725.29 993.9c-1.88 12.915 7.318 24.854 20.552 26.689 1.163 0.15 2.291 0.232 3.438 0.232 11.849 0 22.211-8.501 23.921-20.291l32.246-221.56c1.88-12.897-7.317-24.836-20.55-26.673z m-400.905 0c-13.285-1.785-25.477 7.145-27.357 20.06L324.371 993.9c-1.88 12.915 7.318 24.854 20.552 26.689 1.163 0.15 2.308 0.232 3.437 0.232 11.849 0 22.21-8.501 23.92-20.291l32.248-221.56c1.897-12.897-7.302-24.836-20.536-26.673z"  /></svg>