<?xml version="1.0" standalone="no"?><!DOCTYPE svg PUBLIC "-//W3C//DTD SVG 1.1//EN" "http://www.w3.org/Graphics/SVG/1.1/DTD/svg11.dtd"><svg class="icon" width="64px" height="64.00px" viewBox="0 0 1024 1024" version="1.1" xmlns="http://www.w3.org/2000/svg"><path fill="#000000" d="M878.873748 283.795203c1.220277-9.985536 2.339862-21.534304 2.339862-30.054311C881.21361 114.389024 766.789692 0.996958 626.132806 0.996958 536.592972 0.996958 454.011909 47.808148 408.113934 122.476351c-28.520989-19.321056-62.224168-29.703381-97.485593-29.703381-95.520588 0-173.207582 76.98015-173.207582 171.61843 0 10.450119 0.932156 20.835436 2.811423 31.002418C58.227361 324.863911 2.811423 401.911855 2.811423 490.308177c0 112.543654 90.01638 197.409746 209.366269 197.409746h599.358489c115.434834 0 209.349321-93.071061 209.349321-207.460085 0-88.862899-58.549379-168.240734-142.011754-196.462635z m-67.337567 356.415654H212.177692c-92.049178 0-161.436493-64.434425-161.436492-149.90268 0-74.451864 50.960531-138.453608 123.922938-155.627215 6.570953-1.530331 12.176851-5.740487 15.444881-11.581667a23.57109 23.57109 0 0 0 1.744677-19.103719c-4.318824-12.680315-6.50316-26.025602-6.50316-39.60617 0-68.444192 56.194563-124.125321 125.277805-124.125321 33.195727 0 64.493245 12.730163 88.103216 35.861594 5.587952 5.458348 13.497821 7.936787 21.203314 6.439355 7.688544-1.413687 14.227595-6.473252 17.444779-13.529724 33.550644-73.236571 107.646594-120.547237 188.754153-120.547237 114.218544 0 207.150031 92.09105 207.15003 205.249828 0 11.665411-3.354765 35.410969-4.640842 43.583038-1.965005 12.364279 6.095404 24.112438 18.425787 26.841113 72.945459 16.241451 125.886946 81.873223 125.886947 156.092796-0.000997 88.198924-72.403114 159.956009-161.419544 159.956009zM113.337233 753.786363c-13.158855-1.83241-25.23601 7.205019-27.082378 20.184421L52.924539 954.258765c-1.84537 12.9804 7.283779 24.99375 20.392786 26.844105 1.11759 0.145556 2.269078 0.231294 3.387665 0.231294 11.736195 0 21.998886-8.571849 23.67577-20.41771L133.712074 780.628473c1.84537-12.982394-7.282782-24.995743-20.374841-26.84211z m321.857084 0c-13.159852-1.797516-25.235013 7.187074-27.098329 20.184421l-31.958501 222.936869c-1.862318 12.999342 7.249882 25.013689 20.358889 26.859059 1.15049 0.151538 2.285029 0.233288 3.404614 0.233288 11.736195 0 21.998886-8.553904 23.693715-20.41771l31.94255-222.954814c1.87827-12.981397-7.233931-24.994746-20.342938-26.841113z m171.647342 0c-13.106016-1.797516-25.232023 7.187074-27.079387 20.184421l-31.958501 222.936869c-1.863315 12.999342 7.248885 25.013689 20.359886 26.859059 1.148496 0.151538 2.268081 0.233288 3.401622 0.233288 11.737192 0 22.001877-8.553904 23.69571-20.41771l31.941553-222.954814c1.863315-12.981397-7.250879-24.994746-20.360883-26.841113z m321.843127 0c-13.191755-1.83241-25.238004 7.205019-27.079387 20.184421L868.271095 954.258765c-1.84537 12.9804 7.282782 24.99375 20.392786 26.844105 1.116594 0.145556 2.267084 0.231294 3.368723 0.231294 11.753144 0 22.001877-8.571849 23.694712-20.41771l33.32932-180.287981c1.847364-12.982394-7.278794-24.995743-20.37185-26.84211z m-666.918378 0c-13.158855-1.797516-25.235013 7.187074-27.097332 20.184421l-31.959499 222.936869c-1.863315 12.999342 7.248885 25.013689 20.356896 26.859059 1.152484 0.151538 2.287023 0.233288 3.404613 0.233288 11.737192 0 22.00088-8.553904 23.693716-20.41771l31.941553-222.954814c1.881261-12.981397-7.23094-24.994746-20.339947-26.841113z m518.506151 0c-13.109007-1.797516-25.23601 7.187074-27.081381 20.184421l-31.959498 222.936869c-1.863315 12.999342 7.248885 25.013689 20.355899 26.859059 1.153481 0.151538 2.270074 0.233288 3.406607 0.233288 11.735198 0 21.998886-8.553904 23.692718-20.41771l31.942551-222.954814c1.862318-12.981397-7.249882-24.994746-20.356896-26.841113z"  /></svg>