<?xml version="1.0" standalone="no"?><!DOCTYPE svg PUBLIC "-//W3C//DTD SVG 1.1//EN" "http://www.w3.org/Graphics/SVG/1.1/DTD/svg11.dtd"><svg class="icon" width="64px" height="64.00px" viewBox="0 0 1024 1024" version="1.1" xmlns="http://www.w3.org/2000/svg"><path fill="#000000" d="M814.393 760.29c-13.731 0-24.856-11.192-24.856-25.007 0-13.815 11.125-25.023 24.856-25.023 88.552 0 160.6-72.48 160.6-161.585 0-74.52-52.053-140.47-123.967-157.358-11.844-2.004-20.714-12.361-20.714-24.656 0-1.37 0.118-2.723 0.318-4.042 1.318-8.403 4.643-32.19 4.643-44 0-114.46-92.577-207.589-206.369-207.589-80.784 0-154.586 47.859-187.97 121.928-3.141 6.949-9.263 12.077-16.605 13.932-8.436 2.105-17.373-0.317-23.554-6.48-23.428-23.303-54.507-36.149-87.491-36.149-68.605 0-124.425 56.161-124.425 125.202 0 13.715 2.172 27.128 6.457 39.891a25.135 25.135 0 0 1-1.796 20.112c-3.398 6.164-9.204 10.607-16.003 12.228C104.894 419.049 54.195 483.696 54.195 558.9c0 86.298 69.041 151.361 160.607 151.361 13.723 0 24.865 11.209 24.865 25.023 0 13.813-11.143 25.007-24.865 25.007-119.907 0-210.329-86.58-210.329-201.392 0-89.905 55.352-168.284 137.372-198.554a176.995 176.995 0 0 1-2.706-30.887c0-96.62 78.127-175.232 174.146-175.232 35.155 0 68.766 10.423 97.271 29.818 46.155-75.639 128.776-123.047 218.348-123.047 141.204 0 256.083 115.581 256.083 257.62 0 8.536-1.068 19.945-2.256 29.901 83.507 29.016 141.99 109.767 141.99 200.156 0 116.683-94.364 211.616-210.328 211.616z"  /><path fill="#000000" d="M514.584 958.291c-9.162 0-16.571-7.467-16.571-16.671V528.947c0-9.223 7.409-16.688 16.571-16.688 9.161 0 16.578 7.467 16.578 16.688V941.62c0 9.204-7.417 16.671-16.578 16.671z"  /><path fill="#000000" d="M719.677 751.954H309.5c-9.162 0-16.57-7.467-16.57-16.671 0-9.222 7.408-16.688 16.57-16.688h410.177c9.153 0 16.57 7.467 16.57 16.688 0 9.204-7.417 16.671-16.57 16.671z"  /><path fill="#000000" d="M342.643 811.707a16.474 16.474 0 0 1-11.719-4.896c-6.474-6.515-6.474-17.07 0-23.568l47.684-47.96-47.684-47.959c-6.474-6.499-6.474-17.072 0-23.57a16.493 16.493 0 0 1 23.437 0l59.402 59.736a16.816 16.816 0 0 1 4.853 11.793c0 4.427-1.754 8.67-4.853 11.794l-59.402 59.734a16.474 16.474 0 0 1-11.718 4.896zM686.533 811.69c-4.242 0-8.485-1.62-11.727-4.878l-59.368-59.753c-6.481-6.516-6.481-17.071 0-23.587l59.368-59.735c6.48-6.517 16.972-6.517 23.437 0 6.466 6.515 6.466 17.07 0 23.569l-47.657 47.959 47.657 47.96c6.466 6.516 6.466 17.071 0 23.587-3.222 3.258-7.465 4.878-11.71 4.878zM573.979 924.948a16.433 16.433 0 0 1-11.711-4.896l-47.684-47.959-47.658 47.959a16.493 16.493 0 0 1-23.438 0c-6.473-6.498-6.473-17.055 0-23.569l59.377-59.753c6.214-6.248 17.223-6.248 23.438 0l59.401 59.753c6.464 6.499 6.464 17.056 0 23.569a16.481 16.481 0 0 1-11.725 4.896zM514.584 638.714a16.47 16.47 0 0 1-11.719-4.895l-59.377-59.736c-6.473-6.516-6.473-17.089 0-23.587a16.495 16.495 0 0 1 23.438 0l47.658 47.959 47.684-47.959c6.466-6.516 16.956-6.516 23.438 0 6.465 6.515 6.465 17.071 0 23.587l-59.401 59.736a16.473 16.473 0 0 1-11.721 4.895zM369.578 897.854c-4.242 0-8.485-1.62-11.718-4.878-6.474-6.516-6.474-17.071 0-23.587l290.035-291.798c6.465-6.516 16.955-6.516 23.437 0s6.481 17.057 0 23.57L381.288 892.976a16.444 16.444 0 0 1-11.71 4.878z"  /><path fill="#000000" d="M659.606 897.854a16.44 16.44 0 0 1-11.709-4.878L357.862 601.161c-6.474-6.515-6.474-17.056 0-23.57a16.483 16.483 0 0 1 23.428 0l290.045 291.798c6.48 6.516 6.48 17.071 0 23.587a16.494 16.494 0 0 1-11.729 4.878z"  /></svg>