<?xml version="1.0" standalone="no"?><!DOCTYPE svg PUBLIC "-//W3C//DTD SVG 1.1//EN" "http://www.w3.org/Graphics/SVG/1.1/DTD/svg11.dtd"><svg class="icon" width="64px" height="64.00px" viewBox="0 0 1024 1024" version="1.1" xmlns="http://www.w3.org/2000/svg"><path fill="#000000" d="M881.11 307.932c1.186-9.85 2.254-21.069 2.254-29.417 0-139.704-114.812-253.363-255.934-253.363-89.519 0-172.092 46.612-218.238 120.988-28.481-19.065-62.054-29.316-97.197-29.316-95.963 0-174.062 77.315-174.062 172.342 0 10.251 0.902 20.401 2.705 30.385C58.674 349.318 3.363 426.416 3.363 514.85c0 112.907 90.362 198.052 210.198 198.052h599.25c115.896 0 210.189-93.357 210.189-208.12 0-88.9-58.466-168.335-141.89-196.85z m-68.299 355.786h-599.25c-91.521 0-160.514-64.008-160.514-148.868 0-73.977 50.677-137.551 123.234-154.629 6.795-1.603 12.604-5.96 15.977-12.003 3.406-6.061 4.041-13.223 1.836-19.784-4.307-12.605-6.478-25.811-6.478-39.267 0-67.898 55.794-123.142 124.377-123.142 32.973 0 64.025 12.638 87.448 35.561 5.776 5.676 14.023 8.147 21.987 6.711a24.79 24.79 0 0 0 18.114-14.024c33.39-72.857 107.148-119.937 187.886-119.937 113.726 0 206.249 91.588 206.249 204.18 0 12.254-3.672 37.246-4.641 43.273a26.597 26.597 0 0 0-0.317 3.973c0 11.987 8.682 22.054 20.352 24.174 72.056 16.461 124.244 81.438 124.244 154.845 0.002 87.633-72.004 158.937-160.504 158.937zM294.865 855.594c21.988 0 39.868-17.714 39.868-39.468 0-21.77-17.88-39.482-39.868-39.482-21.97 0-39.867 17.713-39.867 39.482 0 21.754 17.897 39.468 39.867 39.468z m268.422-39.468c0-21.77-17.88-39.482-39.884-39.482-21.987 0-39.852 17.713-39.852 39.482 0 21.754 17.865 39.468 39.852 39.468 22.004 0 39.884-17.714 39.884-39.468z m228.538 0c0-21.77-17.882-39.482-39.885-39.482-21.971 0-39.834 17.713-39.834 39.482 0 21.754 17.863 39.468 39.834 39.468 22.004 0 39.885-17.714 39.885-39.468z m-341.128 63.509c0-21.771-17.897-39.484-39.884-39.484s-39.868 17.713-39.868 39.484c0 21.753 17.88 39.466 39.868 39.466s39.884-17.713 39.884-39.466z m228.537 0c0-21.771-17.88-39.484-39.884-39.484-21.987 0-39.867 17.713-39.867 39.484 0 21.753 17.88 39.466 39.867 39.466 22.004 0 39.884-17.713 39.884-39.466z m100.186 66.078H283.647c-14.157 0-25.644 11.486-25.644 25.644S269.49 997 283.647 997H779.42c14.158 0 25.644-11.486 25.644-25.644s-11.486-25.643-25.644-25.643z"  /></svg>