<?xml version="1.0" standalone="no"?><!DOCTYPE svg PUBLIC "-//W3C//DTD SVG 1.1//EN" "http://www.w3.org/Graphics/SVG/1.1/DTD/svg11.dtd"><svg class="icon" width="64px" height="64.00px" viewBox="0 0 1024 1024" version="1.1" xmlns="http://www.w3.org/2000/svg"><path fill="#000000" d="M448.439 723.966l-100.763 128.33 96.674 1.222-111.758 150.271 331.735-187.26-116.424-0.619 61.632-91.942-161.096-0.002z"  /><path fill="#000000" d="M332.593 1011.998a7.913 7.913 0 0 1-6.087-2.844c-2.484-2.926-2.626-7.24-0.326-10.316l102.107-137.311-80.703-1.021c-3.086-0.034-5.87-1.855-7.19-4.7a8.357 8.357 0 0 1 0.986-8.646l100.763-128.313c1.539-1.938 3.854-3.076 6.296-3.076h161.098c2.984 0 5.729 1.674 7.124 4.364a8.392 8.392 0 0 1-0.469 8.479l-53.078 79.166 101.266 0.534c3.663 0.017 6.84 2.574 7.751 6.171 0.911 3.629-0.694 7.408-3.904 9.214l-331.728 187.278a7.983 7.983 0 0 1-3.906 1.021z m31.688-167.712l80.16 1.021c3.052 0.033 5.803 1.807 7.141 4.6 1.339 2.792 1.021 6.104-0.818 8.562l-88.73 119.316L633.442 824.57l-85.577-0.47c-2.978 0-5.702-1.688-7.083-4.381a8.383 8.383 0 0 1 0.469-8.462l53.036-79.063H452.302l-88.021 112.092z"  /><path fill="#000000" d="M813.905 725.723H212.759c-119.776 0-210.104-87.644-210.104-203.884 0-91.238 55.562-170.771 137.813-201.274a180.758 180.758 0 0 1-2.818-31.89c0-97.761 77.986-177.302 173.84-177.302 35.369 0 69.148 10.719 97.762 30.619 46.054-77.05 128.89-125.353 218.706-125.353 141.122 0 255.949 117.092 255.949 261.033 0 8.746-1.121 20.636-2.315 30.904C965.286 337.756 1024 419.714 1024 511.454c0 118.147-94.248 214.269-210.095 214.269zM311.489 160.646c-69.215 0-125.528 57.426-125.528 128.029 0 13.98 2.2 27.726 6.521 40.77a25.14 25.14 0 0 1-1.739 19.833c-3.295 6.053-8.938 10.418-15.553 12.023-73.145 17.743-124.232 83.747-124.232 160.537 0 88.146 69.565 154.603 161.801 154.603h601.146c89.199 0 161.769-74.015 161.769-164.986 0-76.556-53.045-144.25-126.147-160.972-12.408-2.843-20.536-15.034-18.569-27.86 1.286-8.428 4.632-32.927 4.632-44.951 0-116.766-93.146-211.759-207.63-211.759-81.321 0-155.588 48.813-189.191 124.367-3.271 7.324-9.85 12.576-17.618 14.047-7.751 1.538-15.753-1.037-21.372-6.723-23.658-23.822-55.012-36.958-88.29-36.958zM261.823 819.252c0 17.291-13.745 31.322-30.711 31.322-16.957 0-30.711-14.031-30.711-31.322s13.755-31.305 30.711-31.305c16.964 0 30.711 14.014 30.711 31.305z"  /><path fill="#000000" d="M231.111 858.784c-21.372 0-38.763-17.727-38.763-39.532s17.392-39.516 38.763-39.516 38.764 17.71 38.764 39.516c-0.001 21.807-17.392 39.532-38.764 39.532z m0-62.626c-12.5 0-22.658 10.352-22.658 23.094s10.158 23.111 22.658 23.111 22.659-10.369 22.659-23.111-10.158-23.094-22.659-23.094zM818.973 819.252c0 17.291-13.764 31.322-30.721 31.322-16.948 0-30.694-14.031-30.694-31.322s13.746-31.305 30.694-31.305c16.957 0 30.721 14.014 30.721 31.305z"  /><path fill="#000000" d="M788.252 858.784c-21.371 0-38.746-17.727-38.746-39.532s17.375-39.516 38.746-39.516 38.764 17.71 38.764 39.516c0 21.807-17.393 39.532-38.764 39.532z m0-62.626c-12.482 0-22.643 10.352-22.643 23.094s10.159 23.111 22.643 23.111c12.501 0 22.668-10.369 22.668-23.111s-10.167-23.094-22.668-23.094zM657.933 967.063c0 17.293-13.764 31.322-30.72 31.322-16.949 0-30.694-14.029-30.694-31.322 0-17.291 13.745-31.304 30.694-31.304 16.956 0.001 30.72 14.012 30.72 31.304z"  /><path fill="#000000" d="M627.213 1006.597c-21.371 0-38.746-17.741-38.746-39.532 0-21.789 17.375-39.517 38.746-39.517 21.372 0 38.771 17.728 38.771 39.517 0.001 21.789-17.399 39.532-38.771 39.532z m0-62.627c-12.484 0-22.644 10.368-22.644 23.095 0 12.761 10.158 23.11 22.644 23.11 12.5 0 22.668-10.351 22.668-23.11 0-12.727-10.168-23.095-22.668-23.095z"  /></svg>