<?xml version="1.0" standalone="no"?><!DOCTYPE svg PUBLIC "-//W3C//DTD SVG 1.1//EN" "http://www.w3.org/Graphics/SVG/1.1/DTD/svg11.dtd"><svg class="icon" width="64px" height="64.00px" viewBox="0 0 1024 1024" version="1.1" xmlns="http://www.w3.org/2000/svg"><path fill="#000000" d="M814.511 684.402H214.82c-119.429 0-209.488-84.584-209.488-196.745 0-88.115 55.447-164.885 137.5-194.257a170.117 170.117 0 0 1-2.813-30.897c0-94.317 77.741-171.038 173.309-171.038 35.282 0 69.006 10.349 97.542 29.587C456.794 46.653 539.432 0 629.019 0c140.729 0 255.226 113.009 255.226 251.905 0 8.476-1.128 19.985-2.328 29.936C965.416 309.968 1024 389.078 1024 477.64c0 114.02-93.968 206.762-209.489 206.762zM313.326 138.797c-69.122 0-125.351 55.493-125.351 123.706 0 13.549 2.195 26.817 6.507 39.455a23.435 23.435 0 0 1-1.746 19.056c-3.27 5.821-8.879 10.017-15.445 11.543-73.012 17.115-124.002 80.883-124.002 155.1 0 85.179 69.437 149.411 161.53 149.411H814.51c89.077 0 161.53-71.515 161.53-159.43 0-73.984-52.977-139.394-125.963-155.548-12.326-2.736-20.394-14.445-18.436-26.768 1.287-8.144 4.642-31.811 4.642-43.419 0-112.792-92.982-204.572-207.267-204.572-81.165 0-155.296 47.151-188.858 120.14-3.234 7.048-9.761 12.073-17.471 13.482-7.702 1.494-15.624-0.977-21.208-6.417-23.629-23.051-54.938-35.739-88.153-35.739zM252.787 909.092c-1.118 0-2.253-0.084-3.39-0.233-13.106-1.841-22.242-13.8-20.386-26.75L245 770.36c1.854-12.937 13.93-21.941 27.097-20.117 13.099 1.842 22.233 13.799 20.386 26.752l-15.988 111.748c-1.685 11.808-11.955 20.349-23.708 20.349zM402.651 1019.545c-1.119 0-2.255-0.082-3.397-0.232-13.116-1.856-22.233-13.813-20.369-26.768l31.969-222.201c1.864-12.936 13.947-21.893 27.104-20.102 13.125 1.842 22.242 13.815 20.37 26.77l-31.969 222.201c-1.696 11.807-11.964 20.332-23.708 20.332zM574.416 1019.545c-1.125 0-2.254-0.082-3.406-0.232-13.113-1.856-22.231-13.813-20.36-26.768l31.972-222.201c1.854-12.936 13.987-21.893 27.104-20.102 13.115 1.842 22.233 13.815 20.37 26.77l-31.97 222.201c-1.703 11.807-11.966 20.332-23.71 20.332zM756.25 909.092a26.11 26.11 0 0 1-3.382-0.233c-13.108-1.841-22.241-13.8-20.396-26.75l15.989-111.748c1.854-12.937 13.896-21.941 27.104-20.117 13.1 1.842 22.231 13.799 20.386 26.752l-15.988 111.748c-1.69 11.807-11.952 20.348-23.713 20.348z"  /></svg>