<?xml version="1.0" standalone="no"?><!DOCTYPE svg PUBLIC "-//W3C//DTD SVG 1.1//EN" "http://www.w3.org/Graphics/SVG/1.1/DTD/svg11.dtd"><svg class="icon" width="64px" height="64.00px" viewBox="0 0 1024 1024" version="1.1" xmlns="http://www.w3.org/2000/svg"><path fill="#000000" d="M602.885 873.778h-22.287l13.194-13.206a7.061 7.061 0 0 0 0-9.961 7.008 7.008 0 0 0-9.944 0l-23.137 23.167h-27.877l49.525-49.593a7.028 7.028 0 0 0 0-9.961 7.021 7.021 0 0 0-9.928 0l-49.542 49.602v-27.925l23.134-23.148c2.757-2.758 2.757-7.22 0-9.961a6.993 6.993 0 0 0-9.93 0l-13.204 13.216v-22.325a7.037 7.037 0 1 0-14.074 0v22.318l-13.188-13.209c-2.758-2.758-7.204-2.758-9.945 0-2.741 2.741-2.741 7.203 0 9.961l23.132 23.148v27.914l-49.524-49.591c-2.757-2.741-7.204-2.741-9.946 0a7.061 7.061 0 0 0 0 9.961l49.533 49.593H471.01l-23.137-23.167a7.063 7.063 0 0 0-9.961 0c-2.741 2.758-2.741 7.221 0 9.961l13.194 13.206h-22.287c-3.878 0-7.02 3.158-7.02 7.053 0 3.878 3.142 7.037 7.02 7.037h22.296l-13.204 13.204a7.061 7.061 0 0 0 0 9.961 7.023 7.023 0 0 0 4.981 2.057 7.05 7.05 0 0 0 4.98-2.057l23.15-23.165h27.852l-49.531 49.591a7.061 7.061 0 0 0 0 9.961 7.02 7.02 0 0 0 4.981 2.057 6.98 6.98 0 0 0 4.965-2.057l49.524-49.591v27.915l-23.132 23.148c-2.741 2.757-2.741 7.22 0 9.961 2.741 2.759 7.187 2.759 9.945 0l13.188-13.209v22.318a7.027 7.027 0 0 0 7.038 7.037 7.026 7.026 0 0 0 7.036-7.037v-22.325l13.204 13.216c1.372 1.37 3.176 2.072 4.965 2.072s3.594-0.702 4.965-2.072c2.757-2.741 2.757-7.204 0-9.961l-23.134-23.148v-27.926l49.542 49.602c1.37 1.372 3.176 2.057 4.964 2.057s3.593-0.685 4.964-2.057a7.028 7.028 0 0 0 0-9.961l-49.523-49.591h27.892l23.12 23.165a6.98 6.98 0 0 0 4.963 2.057 7.02 7.02 0 0 0 4.981-2.057 7.061 7.061 0 0 0 0-9.961l-13.182-13.204h22.274c3.878 0 7.02-3.159 7.02-7.037 0.002-3.894-3.14-7.053-7.018-7.053z m277.726-551.741c1.203-9.878 2.341-21.311 2.341-29.718 0-137.894-114.729-250.08-255.764-250.08-89.789 0-172.593 46.349-218.624 120.21-28.599-19.122-62.394-29.401-97.746-29.401-95.773 0-173.679 76.167-173.679 169.801 0 10.363 0.953 20.608 2.825 30.67C57.729 362.703 2.171 438.92 2.171 526.369c0 111.334 90.257 195.291 209.933 195.291h600.964c115.764 0 209.933-92.063 209.933-205.253-0.001-87.9-58.701-166.441-142.39-194.37z m-67.543 352.639H212.103c-92.296 0-161.879-63.748-161.879-148.307 0-73.66 51.096-136.991 124.272-153.988 6.585-1.521 12.201-5.684 15.477-11.467a23.012 23.012 0 0 0 1.755-18.886c-4.33-12.553-6.536-25.724-6.536-39.179 0-67.71 56.36-122.817 125.625-122.817 33.278 0 64.651 12.603 88.352 35.485 5.583 5.416 13.54 7.789 21.244 6.402 7.739-1.404 14.258-6.402 17.517-13.405C471.543 136.057 545.838 89.24 627.187 89.24c114.527 0 207.692 91.11 207.692 203.08 0 12.201-3.644 37.022-4.646 43.006a23.892 23.892 0 0 0-0.301 3.778c0 11.448 8.391 21.076 19.689 23.099 72.675 16.38 125.325 81.081 125.325 154.206 0.002 87.264-72.607 158.267-161.878 158.267z"  /></svg>