<?xml version="1.0" standalone="no"?><!DOCTYPE svg PUBLIC "-//W3C//DTD SVG 1.1//EN" "http://www.w3.org/Graphics/SVG/1.1/DTD/svg11.dtd"><svg class="icon" width="64px" height="64.00px" viewBox="0 0 1024 1024" version="1.1" xmlns="http://www.w3.org/2000/svg"><path fill="#000000" d="M194.293 813.523c-13.606-1.807-26.471 7.612-28.411 21.354l-12.999 92.02c-1.941 13.74 7.63 26.451 21.388 28.394 1.183 0.169 2.363 0.253 3.545 0.253 12.323 0 23.094-9.065 24.866-21.624l12.999-92.002c1.942-13.742-7.63-26.453-21.388-28.395z m547.585 0c-13.657-1.807-26.486 7.612-28.429 21.354l-12.998 92.02c-1.94 13.74 7.631 26.451 21.389 28.394 1.197 0.169 2.38 0.253 3.545 0.253 12.34 0 23.109-9.065 24.866-21.624l12.997-92.002c1.958-13.742-7.63-26.453-21.37-28.395z m274.82-548.057C994.35 138.572 873.482 53.678 747.111 76.028c-46.95 8.333-89.018 30.17-122.548 63.443a229.261 229.261 0 0 0-59.969-7.956c-80.252 0-154.31 42.135-196.057 109.49-25.523-16.982-55.437-26.098-86.7-26.098-86.802 0-157.432 70.951-157.432 158.158 0 9.015 0.759 17.944 2.262 26.739C53.253 427.372 3.775 497.731 3.775 578.354c0 103.516 81.604 181.572 189.826 181.572 13.066 0 23.65-10.651 23.65-23.769 0-13.134-10.584-23.785-23.65-23.785-81.248 0-142.492-57.615-142.492-134.019 0-66.63 44.972-123.924 109.39-139.285a23.58 23.58 0 0 0 15.227-11.598 23.845 23.845 0 0 0 1.722-19.108c-3.781-11.344-5.705-23.211-5.705-35.298 0-60.991 49.394-110.604 110.098-110.604 29.152 0 56.652 11.344 77.416 31.956 5.521 5.453 13.336 7.934 20.933 6.449 7.596-1.401 14.045-6.466 17.252-13.539 29.693-65.769 95.311-108.274 167.155-108.274 101.149 0 183.462 82.7 183.462 184.323 0 10.466-2.971 31.686-4.118 39.164a23.847 23.847 0 0 0-0.305 3.815c0 11.732 8.475 21.591 19.817 23.465 63.692 15.023 109.777 73.432 109.777 139.386 0 78.936-63.929 143.168-142.492 143.168-13.065 0-23.667 10.651-23.667 23.785 0 13.116 10.602 23.769 23.667 23.769 104.662 0 189.811-85.569 189.811-190.722 0-22.175-3.92-43.705-11.135-63.83 80.32-49.666 123.969-145.182 107.284-239.909zM887.891 462.825c-22.539-33.532-55.414-59.859-94.408-73.655 0.996-8.694 1.891-18.434 1.891-25.794 0-88.182-49.251-165.011-121.562-204.205 23.618-18.546 51.308-30.945 81.537-36.315 100.645-17.911 196.95 49.815 214.743 150.899 13.06 74.179-20.303 148.969-82.201 189.07zM657.37 720.307h-50.003l29.611-29.744c6.161-6.194 6.161-16.238 0-22.418a15.724 15.724 0 0 0-22.317 0l-51.913 52.162h-62.516l111.12-111.649c6.162-6.195 6.162-16.224 0-22.418a15.748 15.748 0 0 0-22.316 0L477.927 697.88v-62.824l51.909-52.141c6.16-6.179 6.16-16.223 0-22.401-6.162-6.194-16.155-6.194-22.301 0l-29.608 29.741v-50.233c0-8.763-7.057-15.853-15.768-15.853s-15.767 7.09-15.767 15.853v50.233l-29.609-29.741c-6.162-6.194-16.139-6.194-22.316 0-6.146 6.18-6.146 16.224 0 22.401l51.926 52.158v62.808L335.283 586.24a15.75 15.75 0 0 0-22.316 0c-6.146 6.194-6.146 16.223 0 22.418l111.121 111.649h-62.531l-51.898-52.161c-6.178-6.195-16.154-6.195-22.315 0-6.146 6.179-6.146 16.223 0 22.418l29.601 29.743H266.95c-8.712 0-15.768 7.091-15.768 15.853 0 8.761 7.056 15.852 15.768 15.852h49.986l-29.595 29.728c-6.146 6.195-6.146 16.223 0 22.418a15.708 15.708 0 0 0 11.158 4.643c4.033 0 8.068-1.553 11.157-4.643l51.882-52.146h62.514L312.966 863.626c-6.146 6.195-6.146 16.223 0 22.418a15.737 15.737 0 0 0 11.159 4.643c4.033 0 8.068-1.553 11.157-4.643l111.11-111.641v62.824l-51.926 52.158c-6.146 6.195-6.146 16.224 0 22.401 6.178 6.195 16.154 6.195 22.316 0l29.609-29.752v50.262c0 8.762 7.056 15.835 15.767 15.835 8.71 0 15.768-7.073 15.768-15.835v-50.263l29.608 29.753a15.628 15.628 0 0 0 11.143 4.659c4.034 0 8.067-1.555 11.158-4.659 6.16-6.179 6.16-16.206 0-22.401l-51.909-52.157v-62.825l111.109 111.641a15.741 15.741 0 0 0 11.158 4.644c4.035 0 8.069-1.554 11.158-4.644 6.162-6.195 6.162-16.223 0-22.418L500.268 752.01h62.531l51.862 52.128a15.746 15.746 0 0 0 11.159 4.644c4.034 0 8.068-1.555 11.158-4.644 6.161-6.194 6.161-16.223 0-22.418L607.4 752.01h49.97c8.711 0 15.769-7.091 15.769-15.852 0-8.762-7.058-15.851-15.769-15.851z"  /></svg>