<?xml version="1.0" standalone="no"?><!DOCTYPE svg PUBLIC "-//W3C//DTD SVG 1.1//EN" "http://www.w3.org/Graphics/SVG/1.1/DTD/svg11.dtd"><svg class="icon" width="64px" height="64.00px" viewBox="0 0 1024 1024" version="1.1" xmlns="http://www.w3.org/2000/svg"><path fill="#000000" d="M369.024 300.334c27.397-104.077-56.15-187.587-115.065-187.587-78.804-1.355-144.88 38.642-144.367 115.432 0 8.241 6.813 14.724 14.651 20.621 10.604 1.905 15.475-0.916 25.107-2.069 24.138-30.273-13.68-47.121 54.392-82.449 81.972-31.573 148.323 54.172 117.153 131.932-16.94 42.287-80.543 68.017-110.872 68.017H32.189c-23.533 0-31.38 10.018-31.38 18.552s5.356 26.793 16.738 26.793h177.826c63.659 0 154.037-34.723 173.651-109.242z m173.651 154.605c-19.669 0-192.147-0.788-211.304 0-30.547 1.226-42.689 45.344 0 45.344h200.828c43.221 0 146.949-10.255 179.933-94.828 36.315-93.125-23.771-201.762-133.892-202.019-55.161-0.11-112.264 45.217-117.171 96.898-3.041 32.085 6.703 41.224 16.739 41.224s12.966 1.648 25.108-10.311-17.196-57.304 66.937-80.397c79.628-21.848 137.315 85.287 92.063 152.554-30.309 45.051-99.572 51.535-119.241 51.535z m445.609-115.45c-35.126-40.968-86.605-45.766-117.153-43.275-30.547 2.473-97.832 30.749-108.802 101-3.058 19.669 9.212 37.104 18.827 37.104 9.633 0 24.083 1.538 27.214-22.673 3.809-29.559 13.754-61.077 69.042-70.087 98.09-16.006 130.028 124.204 71.132 171.087-24.248 19.302-75.325 35.053-119.259 35.053H400.414c-48.348 0-124.277-9.835-161.105 6.189-4.34 11.172 9.065 39.155 39.759 39.155H802.09c63.036 0 153.305 3.277 207.109-84.518 23.038-37.561 18.002-123.671-20.915-169.035zM553.132 640.457c-71.662 0-358.656-2.051-370.322-2.051-16.72 0-24.046 27.818-12.545 39.154 11.52 11.337 74.812 8.241 100.414 8.241 25.639 0 258.919 0.019 293.422 0.019-6.007 0 80.818 4.798 106.184 68.017 24.411 60.856-21.043 148.03-79.5 138.104-116.164-19.724-63.824-71.186-98.327-90.689-25.108-2.746-32.231 5.348-33.477 28.862-0.439 8.132 20.347 84.903 94.151 101.001 110.854 24.174 191.286-68.256 167.369-171.087-17.397-74.776-95.707-119.571-167.369-119.571z"  /></svg>