<?xml version="1.0" standalone="no"?><!DOCTYPE svg PUBLIC "-//W3C//DTD SVG 1.1//EN" "http://www.w3.org/Graphics/SVG/1.1/DTD/svg11.dtd"><svg class="icon" width="64px" height="63.94px" viewBox="0 0 1025 1024" version="1.1" xmlns="http://www.w3.org/2000/svg"><path fill="#000000" d="M882.97 305.877c1.171-10.076 2.241-21.573 2.241-30.108 0-143.021-115.086-259.389-256.547-259.389-89.759 0-172.542 47.719-218.802 123.878-28.554-19.524-62.213-30.015-97.444-30.015-96.221 0-174.517 79.148-174.517 176.423 0 10.499 0.921 20.896 2.71 31.107C58.467 348.254 3 427.182 3 517.709c0 115.587 90.598 202.762 210.735 202.762h600.746c116.204 0 210.752-95.582 210.752-213.059 0.001-91.01-58.627-172.342-142.263-201.535zM814.482 670.11H213.736c-91.752 0-160.926-65.517-160.926-152.401 0-75.728 50.814-140.82 123.554-158.296 6.793-1.643 12.619-6.096 16.017-12.294a25.463 25.463 0 0 0 1.825-20.252c-4.318-12.904-6.478-26.425-6.478-40.201 0-69.496 55.951-126.054 124.69-126.054 33.056 0 64.187 12.93 87.668 36.4 5.809 5.799 14.025 8.365 22.042 6.866 8.001-1.49 14.779-6.85 18.143-14.359C473.746 114.942 547.693 66.75 628.664 66.75c113.979 0 206.735 93.761 206.735 209.02 0 12.54-3.663 38.135-4.633 44.298a25.339 25.339 0 0 0-0.321 4.073c0 12.26 8.705 22.582 20.389 24.749 72.234 16.849 124.571 83.363 124.571 158.523 0.001 89.714-72.184 162.697-160.923 162.697zM455.771 954.02c0 33.225 26.613 60.184 59.485 60.184 32.871 0 59.533-26.959 59.533-60.184 0 0-2.294-60.942-59.533-118.806-57.207 57.862-59.485 118.806-59.485 118.806z"  /></svg>