<?xml version="1.0" standalone="no"?><!DOCTYPE svg PUBLIC "-//W3C//DTD SVG 1.1//EN" "http://www.w3.org/Graphics/SVG/1.1/DTD/svg11.dtd"><svg class="icon" width="64px" height="64.00px" viewBox="0 0 1024 1024" version="1.1" xmlns="http://www.w3.org/2000/svg"><path fill="#000000" d="M723.028 803.313c-5.54 0-11.098-1.87-15.677-5.732-10.382-8.738-11.744-24.311-3.075-34.762 36.771-44.394 57.01-100.773 57.01-158.709 0-136.583-110.176-247.686-245.587-247.686-135.43 0-245.622 111.103-245.622 247.686 0 57.936 20.255 114.28 57.026 158.674 8.651 10.451 7.288 26.022-3.093 34.762-10.348 8.738-25.796 7.323-34.465-3.109-44.112-53.254-68.405-120.854-68.405-190.325 0-163.777 132.144-297.04 294.559-297.04 162.396 0 294.522 133.263 294.522 297.04 0 69.487-24.294 137.09-68.405 190.342a24.326 24.326 0 0 1-18.788 8.859zM515.698 241.075c-13.511 0-24.468-11.063-24.468-24.677v-85.76c0-13.615 10.958-24.677 24.468-24.677 13.526 0 24.469 11.063 24.469 24.677v85.76c-0.001 13.614-10.942 24.677-24.469 24.677zM116.12 628.786H31.104c-13.519 0-24.477-11.063-24.477-24.678s10.958-24.68 24.477-24.68h85.018c13.519 0 24.468 11.064 24.468 24.68-0.001 13.615-10.951 24.678-24.47 24.678zM233.146 343.858c-6.273 0-12.521-2.412-17.302-7.236l-66.876-67.444c-9.56-9.629-9.56-25.254 0-34.884 9.542-9.647 25.036-9.647 34.596 0l66.886 67.444c9.56 9.63 9.56 25.254 0 34.884a24.277 24.277 0 0 1-17.304 7.236zM798.197 343.858a24.335 24.335 0 0 1-17.318-7.236c-9.562-9.63-9.562-25.271 0.017-34.884l66.902-67.444c9.543-9.647 25.026-9.647 34.604 0 9.543 9.63 9.543 25.271-0.018 34.884l-66.885 67.444c-4.79 4.824-11.047 7.236-17.302 7.236z"  /><path fill="#000000" d="M798.232 343.858c-6.257 0-12.514-2.412-17.303-7.236-9.542-9.63-9.542-25.254 0-34.884l66.885-67.444c9.56-9.647 25.045-9.647 34.587 0 9.578 9.63 9.578 25.255 0 34.884l-66.867 67.444c-4.79 4.824-11.046 7.236-17.302 7.236zM232.325 344.696a24.28 24.28 0 0 1-17.304-7.235l-66.885-67.444c-9.56-9.63-9.56-25.254 0-34.884 9.542-9.647 25.045-9.647 34.596 0l66.894 67.443c9.542 9.63 9.542 25.254 0 34.884-4.787 4.825-11.044 7.236-17.301 7.236zM514.841 226.639c-13.509 0-24.468-11.045-24.468-24.66v-85.725c0-13.632 10.959-24.677 24.468-24.677 13.51 0 24.468 11.045 24.468 24.677v85.725c0 13.615-10.958 24.66-24.468 24.66zM115.264 629.625H30.238c-13.518 0-24.467-11.063-24.467-24.678 0-13.632 10.949-24.678 24.467-24.678h85.026c13.51 0 24.468 11.046 24.468 24.678 0 13.616-10.958 24.678-24.468 24.678zM999.392 629.625h-85.025c-13.51 0-24.468-11.063-24.468-24.678 0-13.632 10.958-24.678 24.468-24.678h85.025c13.526 0 24.469 11.046 24.469 24.678 0 13.616-10.943 24.678-24.469 24.678zM956.888 934.879H72.742c-13.511 0-24.469-11.046-24.469-24.678 0-13.614 10.958-24.679 24.469-24.679h884.146c13.51 0 24.468 11.063 24.468 24.679 0 13.632-10.958 24.678-24.468 24.678z"  /></svg>